HIERARCHY
ROOT Hips
{
	OFFSET -3.958830 18.904000 13.208200
	CHANNELS 6 Xposition Yposition Zposition Zrotation Yrotation Xrotation 
	JOINT LHipJoint
	{
		OFFSET 0.000000 0.000000 0.000000
		CHANNELS 3 Zrotation Yrotation Xrotation
		JOINT LeftUpLeg
		{
			OFFSET 1.800000 -1.400000 0.085000
			CHANNELS 3 Zrotation Yrotation Xrotation
			JOINT LeftLeg
			{
				OFFSET 2.215000 -6.000000 0.000000
				CHANNELS 3 Zrotation Yrotation Xrotation
				JOINT LeftFoot
				{
					OFFSET 2.500000 -6.900000 0.000000
					CHANNELS 3 Zrotation Yrotation Xrotation
					JOINT LeftToeBase
					{
						OFFSET 0.200000 -0.500000 1.950000
						CHANNELS 3 Zrotation Yrotation Xrotation
						End Site
						{
							OFFSET 0.000000 0.000000 0.000000
						}
					}
				}
			}
		}
	}
	JOINT RHipJoint
	{
		OFFSET 0.000000 0.000000 0.000000
		CHANNELS 3 Zrotation Yrotation Xrotation
		JOINT RightUpLeg
		{
			OFFSET -1.800000 -1.400000 0.085000
			CHANNELS 3 Zrotation Yrotation Xrotation
			JOINT RightLeg
			{
				OFFSET -2.215000 -6.000000 0.000000
				CHANNELS 3 Zrotation Yrotation Xrotation
				JOINT RightFoot
				{
					OFFSET -2.500000 -6.900000 0.000000
					CHANNELS 3 Zrotation Yrotation Xrotation
					JOINT RightToeBase
					{
						OFFSET -0.200000 -0.500000 1.950000
						CHANNELS 3 Zrotation Yrotation Xrotation
						End Site
						{
							OFFSET 0.000000 0.000000 0.000000
						}
					}
				}
			}
		}
	}
	JOINT LowerBack
	{
		OFFSET 0.000000 0.000000 0.000000
		CHANNELS 3 Zrotation Yrotation Xrotation
		JOINT Spine
		{
			OFFSET -0.087000 1.940000 -0.288900
			CHANNELS 3 Zrotation Yrotation Xrotation
			JOINT Spine1
			{
				OFFSET 0.000000 1.950000 0.060000
				CHANNELS 3 Zrotation Yrotation Xrotation
				JOINT Neck
				{
					OFFSET 0.000000 0.000000 0.000000
					CHANNELS 3 Zrotation Yrotation Xrotation
					JOINT Neck1
					{
						OFFSET 0.000000 1.600000 0.340000
						CHANNELS 3 Zrotation Yrotation Xrotation
						JOINT Head
						{
							OFFSET 0.000000 1.667000 -0.240000
							CHANNELS 3 Zrotation Yrotation Xrotation
							End Site
							{
								OFFSET 0.000000 0.000000 0.000000
							}
						}
					}
				}
				JOINT LeftShoulder
				{
					OFFSET 0.000000 0.000000 0.000000
					CHANNELS 3 Zrotation Yrotation Xrotation
					JOINT LeftArm
					{
						OFFSET 2.700000 1.550000 -0.730000
						CHANNELS 3 Zrotation Yrotation Xrotation
						JOINT LeftForeArm
						{
							OFFSET 5.450000 0.000000 0.000000
							CHANNELS 3 Zrotation Yrotation Xrotation
							JOINT LeftHand
							{
								OFFSET 3.450000 0.000000 0.000000
								CHANNELS 3 Zrotation Yrotation Xrotation
								JOINT LeftHandIndex1
								{
									OFFSET 0.750000 0.000000 0.000000
									CHANNELS 3 Zrotation Yrotation Xrotation
									End Site
									{
										OFFSET 0.000000 0.000000 0.000000
									}
								}
							}
						}
					}
				}
				JOINT RightShoulder
				{
					OFFSET 0.000000 0.000000 0.000000
					CHANNELS 3 Zrotation Yrotation Xrotation
					JOINT RightArm
					{
						OFFSET -2.700000 1.550000 -0.730000
						CHANNELS 3 Zrotation Yrotation Xrotation
						JOINT RightForeArm
						{
							OFFSET -5.450000 0.000000 0.000000
							CHANNELS 3 Zrotation Yrotation Xrotation
							JOINT RightHand
							{
								OFFSET -3.450000 0.000000 0.000000
								CHANNELS 3 Zrotation Yrotation Xrotation
								JOINT RightHandIndex1
								{
									OFFSET -0.750000 0.000000 0.000000
									CHANNELS 3 Zrotation Yrotation Xrotation
									End Site
									{
										OFFSET 0.000000 0.000000 0.000000
									}
								}
							}
						}
					}
				}
			}
		}
	}
}
MOTION
Frames: 8
Frame Time: 0.016667
-0.542040 15.307660 -2.527640 3.816637 -5.343370 17.774139 -16.199727 8.322838 7.143506 35.214760 2.484229 -54.150955 -36.198890 28.734951 39.219428 1.573028 12.412072 0.156888 0.489980 0.375260 0.542500 18.448339 -4.618700 5.966138 -65.349413 3.445298 -36.732437 64.156866 -13.890311 8.003874 -1.661713 -7.871339 1.476362 0.051620 -0.467970 0.068140 -2.626018 -3.647234 -11.364341 32.709726 -6.851826 43.044890 -4.921988 7.789650 -11.993973 6.397439 10.365194 -12.881872 22.261636 -21.399172 38.306743 17.210430 -12.073310 -25.868540 -38.488185 -11.485144 5.919666 -53.394540 18.660658 -14.479652 -18.484459 -9.777432 -1.652852 -3.128426 2.822875 0.662970 -0.452030 0.509410 -0.002590 22.887014 14.627945 5.649199 29.935295 5.782896 -8.935476 25.953062 36.592415 6.471137 2.339455 -1.390730 0.104370 0.016190 -0.273680 -0.200050 
-0.548230 15.312480 -2.525240 3.933674 -5.285456 17.837658 -16.190337 8.319450 7.123880 35.068916 2.418293 -54.112021 -36.055731 28.594688 39.129866 1.571269 12.376351 0.165833 0.486720 0.373250 0.531970 18.455589 -4.631167 5.981396 -65.487184 3.420224 -36.655466 64.278914 -13.762666 7.819622 -1.656364 -7.864444 1.478326 0.048710 -0.464590 0.066470 -2.645813 -3.609957 -11.358165 32.734344 -6.777971 42.904076 -4.739965 7.781082 -11.935686 6.299679 10.349711 -12.772334 22.220001 -21.504021 38.268904 17.911430 -12.430250 -25.764490 -38.451158 -11.352925 5.880067 -53.509281 18.428644 -14.373112 -18.194564 -9.590354 -1.647878 -3.131215 2.829978 0.655170 -0.452650 0.502870 -0.002100 23.080928 14.465394 5.546470 29.818287 5.937911 -8.965885 24.696830 36.618102 6.190900 2.342496 -1.390046 0.108790 0.009680 -0.272600 -0.193640 
-0.560600 15.321630 -2.521470 4.210277 -5.106995 17.774200 -16.174746 8.344917 7.080941 34.715347 2.133186 -53.967418 -35.736611 28.320323 39.081891 1.559278 12.328271 0.180557 0.476470 0.353120 0.521410 18.461729 -4.676727 5.982343 -65.544741 3.292935 -36.499139 64.269249 -13.965879 7.993688 -1.652254 -7.893725 1.466277 0.038640 -0.455410 0.064920 -2.666284 -3.581118 -11.336042 32.702138 -6.694024 42.798094 -4.507039 7.766818 -11.932637 6.137581 10.309596 -12.597865 22.033624 -21.679355 38.244371 19.028370 -13.027140 -25.714640 -38.360045 -11.133971 5.776063 -53.446917 18.014578 -14.184990 -18.179781 -9.390614 -1.651530 -3.137336 2.836253 0.653100 -0.454340 0.491150 -0.004450 23.368637 14.180940 5.456641 29.621143 5.808852 -9.159326 23.597512 37.097829 6.031247 2.343494 -1.392804 0.105960 0.005750 -0.265510 -0.190540 
-0.577640 15.333170 -2.521080 4.505777 -4.828358 17.667158 -16.159881 8.374745 7.039772 34.319417 1.795921 -53.957134 -35.104083 28.058381 39.345604 1.548765 12.293459 0.191240 0.461060 0.334460 0.499510 18.466720 -4.736841 5.965267 -65.388446 3.084284 -36.681670 63.964051 -14.592419 8.738822 -1.650790 -7.963779 1.444168 0.028160 -0.441770 0.063770 -2.680987 -3.548020 -11.309195 32.569922 -6.501087 42.746482 -4.071742 7.845725 -11.883962 5.865664 10.305288 -12.449393 21.760794 -21.888712 37.840380 20.365840 -13.630900 -25.909620 -37.845466 -11.035674 5.703355 -53.588790 17.243965 -14.009258 -18.551550 -9.174846 -1.664640 -3.152518 2.844269 0.649350 -0.453700 0.479910 -0.003890 23.440130 13.985140 5.444540 29.387736 5.522781 -9.472684 22.476029 37.891455 5.896082 2.339932 -1.397518 0.103270 0.003200 -0.256370 -0.182800 
-0.591400 15.347480 -2.518110 4.703307 -4.817802 17.690296 -16.138640 8.376750 6.999744 33.974969 1.546368 -53.911335 -34.609852 27.789249 39.426563 1.534666 12.243668 0.205053 0.455510 0.324170 0.491930 18.479100 -4.794424 5.973101 -65.224777 3.014590 -36.747347 63.676952 -14.670903 8.930322 -1.645496 -7.973816 1.439444 0.021490 -0.436610 0.064480 -2.723538 -3.443589 -11.292200 32.378221 -6.321371 42.462005 -3.835191 7.849456 -11.641680 5.638541 10.285636 -12.492443 21.752208 -21.985447 37.798648 21.071060 -13.949620 -25.843620 -37.191416 -11.086028 5.807995 -53.696085 16.879164 -14.108817 -19.463138 -9.523898 -1.649023 -3.154656 2.855723 0.649950 -0.454820 0.476270 -0.002210 23.240030 14.006513 5.469612 29.712757 5.719700 -9.531966 21.009348 37.710785 5.480427 2.342114 -1.385936 0.102610 -0.000060 -0.254250 -0.179810 
-0.597530 15.363650 -2.507700 4.670885 -5.101482 17.771279 -16.121334 8.363238 6.964940 33.902639 1.487519 -53.656541 -34.365452 27.634413 39.351799 1.527476 12.209073 0.219221 0.444480 0.311000 0.479970 18.492200 -4.828602 5.995488 -65.043910 3.060144 -36.703298 63.497417 -14.314444 8.657127 -1.630653 -7.937679 1.452020 0.014600 -0.426290 0.059780 -2.772616 -3.332620 -11.283679 32.278160 -6.090759 42.218653 -3.637589 7.996706 -11.426747 5.379004 10.245246 -12.453522 21.479138 -22.165642 37.576407 21.656120 -14.399140 -25.866250 -36.460930 -11.032447 5.844023 -53.868830 16.495415 -14.241637 -20.358676 -10.012210 -1.597874 -3.162043 2.859215 0.646310 -0.453770 0.468100 -0.000810 23.027833 13.903410 5.484941 29.987660 5.667364 -9.614061 20.014500 37.573193 5.184192 2.344035 -1.374716 0.098340 0.004520 -0.249570 -0.174750 
-0.601660 15.380960 -2.497150 4.489791 -5.463880 17.732453 -16.115386 8.385159 6.934097 33.945023 1.489337 -53.203525 -34.269080 27.459562 39.113661 1.512817 12.166498 0.233173 0.440590 0.305310 0.473680 18.490728 -4.866272 5.986107 -64.362680 3.146679 -36.883923 62.888102 -14.343483 8.973878 -1.616800 -7.932091 1.453411 0.014400 -0.419140 0.055410 -2.788054 -3.290716 -11.266256 32.115299 -5.836540 42.222059 -3.222933 8.203196 -11.236144 5.176445 10.176228 -12.338773 21.084533 -22.398669 37.311449 21.921470 -14.801260 -26.079930 -35.893136 -10.860247 5.772581 -53.760628 16.044617 -14.323681 -21.739773 -10.577315 -1.535807 -3.167168 2.867683 0.644220 -0.453590 0.461290 0.000980 22.901028 13.774555 5.474999 29.972452 5.522313 -9.755793 19.184980 37.679705 4.977817 2.340025 -1.371367 0.093840 0.011210 -0.246780 -0.171790 
-0.603160 15.397390 -2.474530 4.260056 -5.893710 17.783874 -16.107710 8.407460 6.907251 33.991531 1.510523 -52.801951 -34.046822 27.323242 38.998810 1.504608 12.132557 0.246027 0.442730 0.305160 0.471820 18.490001 -4.909809 5.973941 -63.592142 3.200549 -37.127843 62.239820 -14.452696 9.363153 -1.604435 -7.930476 1.452732 0.015840 -0.414850 0.053300 -2.809101 -3.242259 -11.253315 31.867602 -5.582457 41.920950 -2.700683 8.300850 -11.095339 5.025267 10.018500 -12.151684 20.562998 -22.430620 37.368123 21.787690 -15.137870 -25.951190 -35.644613 -10.490727 5.646603 -54.302944 15.890800 -14.504453 -21.435230 -11.167521 -1.435675 -3.171222 2.865810 0.637670 -0.453720 0.455930 0.006140 23.019109 13.509385 5.353230 29.969602 5.443688 -9.780091 18.324343 37.326567 4.709831 2.343074 -1.369597 0.094530 0.014120 -0.249180 -0.166870 
